<svg xmlns="http://www.w3.org/2000/svg" xmlns:xlink="http://www.w3.org/1999/xlink" width="1389.344" height="594.314" viewBox="0 0 1389.344 594.314">
  <defs>
    <clipPath id="clip-path">
      <rect id="Rectangle_107" data-name="Rectangle 107" width="1389.344" height="594.314" fill="none"/>
    </clipPath>
  </defs>
  <g id="logo" transform="translate(0 0)">
    <g id="Group_227" data-name="Group 227" transform="translate(0 0)">
      <path id="Path_2078" data-name="Path 2078" d="M0,41.929v168.1H65.8V199.938H11.048V127.412H56.433V117.325H11.048V52.016H65.8V41.929Z" transform="translate(0 381.885)" fill="#0d1021"/>
      <g id="Group_226" data-name="Group 226" clip-path="url(#clip-path)">
        <path id="Path_2079" data-name="Path 2079" d="M15.321,175.694V80.6c0-24.259,13.211-38.906,35.783-38.906,23.3,0,36.268,14.647,36.268,38.906V97.639H76.8V80.122c0-18.013-9.845-28.343-25.452-28.343-15.364,0-24.967,10.33-24.967,28.343v96.057c0,18,9.6,28.333,24.967,28.333,15.607,0,25.452-10.33,25.452-28.333V153.84H87.371v21.854C87.371,199.943,74.4,214.6,51.1,214.6c-22.571,0-35.783-14.657-35.783-38.906" transform="translate(139.545 379.72)" fill="#0d1021"/>
        <path id="Path_2080" data-name="Path 2080" d="M31.523,174.016V82.275c0-26.423,13.211-40.584,37-40.584,23.764,0,36.975,14.161,36.975,40.584v91.741c0,26.412-13.211,40.574-36.975,40.574-23.784,0-37-14.161-37-40.574m62.923.718V81.547c0-19.923-9.117-29.768-25.927-29.768S42.571,61.624,42.571,81.547v93.186c0,19.933,9.128,29.768,25.947,29.768s25.927-9.835,25.927-29.768" transform="translate(287.114 379.72)" fill="#0d1021"/>
        <path id="Path_2081" data-name="Path 2081" d="M47.581,172.338v-9.613H72.558v11.523c0,12.018,5.287,16.335,13.686,16.335s13.929-4.316,13.929-16.81c0-13.929-5.762-22.571-23.046-37.7C55.02,116.612,47.581,102.683,47.581,83.478c0-26.412,13.686-41.787,39.381-41.787s38.431,15.374,38.431,42.272v6.954H100.416V82.275c0-12.008-4.8-16.567-13.211-16.567S73.761,70.266,73.761,81.8c0,12.251,6,20.883,23.3,36.015,22.086,19.458,29.293,33.144,29.293,54.038,0,27.373-13.929,42.747-39.866,42.747s-38.906-15.374-38.906-42.262" transform="translate(433.371 379.72)" fill="#0d1021"/>
        <path id="Path_2082" data-name="Path 2082" d="M63.973,41.928H90.4V110.37h28.333V41.928H145.14V210.036H118.728V134.387H90.4v75.649H63.973Z" transform="translate(582.668 381.881)" fill="#0d1021"/>
        <path id="Path_2083" data-name="Path 2083" d="M139.921,177.133H109.415l-4.559,32.9H80.364L107.737,41.928h35.783l27.373,168.107H144.479Zm-3.366-22.814-12-84.776L112.781,154.32Z" transform="translate(731.961 381.879)" fill="#0d1021"/>
        <path id="Path_2084" data-name="Path 2084" d="M97.682,41.928h40.351c26.412,0,39.371,14.647,39.371,41.544v85.019c0,26.9-12.959,41.544-39.371,41.544H97.682Zm39.866,144.09c8.4,0,13.444-4.326,13.444-16.324V82.269c0-12-5.044-16.324-13.444-16.324H124.1V186.018Z" transform="translate(889.694 381.879)" fill="#0d1021"/>
        <path id="Path_2085" data-name="Path 2085" d="M114.452,41.928H186.5V65.945H140.874V110.37h36.258v24.017H140.874v51.632H186.5v24.017h-72.05Z" transform="translate(1042.437 381.881)" fill="#0d1021"/>
        <path id="Path_2086" data-name="Path 2086" d="M129.656,172.338v-9.613h24.977v11.523c0,12.018,5.286,16.335,13.686,16.335s13.929-4.316,13.929-16.81c0-13.929-5.762-22.571-23.046-37.7-22.106-19.458-29.546-33.387-29.546-52.592,0-26.412,13.686-41.787,39.381-41.787s38.431,15.374,38.431,42.272v6.954H182.491V82.275c0-12.008-4.8-16.567-13.211-16.567S155.836,70.266,155.836,81.8c0,12.251,6,20.883,23.3,36.015,22.086,19.458,29.293,33.144,29.293,54.038,0,27.373-13.929,42.747-39.866,42.747s-38.906-15.374-38.906-42.262" transform="translate(1180.915 379.72)" fill="#0d1021"/>
        <path id="Path_2087" data-name="Path 2087" d="M744.99,114.5c-1.092-4.276-2.345-8.491-3.811-12.6a146.682,146.682,0,0,0-28.97-48.852A154.928,154.928,0,0,0,700.686,41.52,146.658,146.658,0,0,0,554.109,12.57c-2.062.7-4.084,1.466-6.105,2.315A145.862,145.862,0,0,0,505.287,41.52h-.02a153.142,153.142,0,0,0-11.533,11.523,146.786,146.786,0,0,0-19,26.736,99.2,99.2,0,0,0-18.316-13.666,97.71,97.71,0,0,0-24.421-9.987h-.02a98.105,98.105,0,0,0-48.8,0h-.03a97.865,97.865,0,0,0-24.421,9.987A99.2,99.2,0,0,0,340.4,79.779a146.786,146.786,0,0,0-19-26.736c-.849-.93-1.779-1.779-2.679-2.669l-24,48.64c.637,1,1.486,1.85,2.082,2.881a97.882,97.882,0,0,1,0,97.694,97.8,97.8,0,0,1-35.782,35.8,96.367,96.367,0,0,1-24.421,9.987A97.714,97.714,0,0,1,186.044,56.611L211.89,4.221a146.185,146.185,0,0,0-97.432,37.3,153.15,153.15,0,0,0-11.533,11.523A146.684,146.684,0,0,0,73.956,101.9c-1.456,4.114-2.719,8.329-3.811,12.6H31.522v72.485H70.145q1.638,6.414,3.811,12.6a146.573,146.573,0,0,0,28.97,48.872,153.161,153.161,0,0,0,11.533,11.523,146.671,146.671,0,0,0,146.567,28.97c2.072-.718,4.114-1.486,6.136-2.325a145.919,145.919,0,0,0,42.707-26.645A153.166,153.166,0,0,0,321.4,248.462a146.651,146.651,0,0,0,19-26.756,141.045,141.045,0,0,0,9.967-22.116,145.891,145.891,0,0,0,8.349-48.852,48.837,48.837,0,0,1,42.787-48.458,48.071,48.071,0,0,1,12.13,0,48.837,48.837,0,0,1,42.777,48.458,146.145,146.145,0,0,0,8.349,48.852,141.045,141.045,0,0,0,9.967,22.116,146.647,146.647,0,0,0,19,26.756,153.153,153.153,0,0,0,11.533,11.523h.02a146.085,146.085,0,0,0,42.686,26.645c2.022.839,4.074,1.607,6.136,2.325a146.464,146.464,0,0,0,146.577-28.97,154.94,154.94,0,0,0,11.523-11.523,146.571,146.571,0,0,0,28.97-48.872c1.466-4.124,2.719-8.329,3.811-12.6h38.633V114.5Zm-57.373,85.09a97.817,97.817,0,0,1-109.056,45.79,96.272,96.272,0,0,1-24.451-9.987,98.006,98.006,0,0,1-35.783-35.8A97.7,97.7,0,0,1,578.56,56.126h.02a97.922,97.922,0,0,1,73.253,9.987A98.51,98.51,0,0,1,687.616,101.9a97.816,97.816,0,0,1,0,97.694" transform="translate(287.104 38.259)" fill="#14142b"/>
        <path id="Path_2088" data-name="Path 2088" d="M156.63,24.768c-10.29-.364-42.161-4.427-70.918,8.42,28.919-1.557,45.961-4.367,63.752-.384C131.086,48.047,97.922,70.982,43.581,42.013,83.285,7.292,129.338,1.621,156.63,24.768" transform="translate(396.939 98.718)" fill="#256d56"/>
        <path id="Path_2089" data-name="Path 2089" d="M92.487,0S34.417,55.22,55.179,101.829a4.078,4.078,0,0,0,2.183,2.123c2.143.839,3.73-.323,7.227.253,3.811.617,8.5,3.022,9.633,1.648s-1.951-28.282,9.835-50.3c-2.234,18.771-4.862,22.784-1.5,52.633a3.6,3.6,0,0,0,1.779,2.7c5.923,3.356,6.136,4.539,11.2,8.359C104.385,109.723,139.581,54.836,92.487,0" transform="translate(461.728 -0.004)" fill="#256d56"/>
      </g>
    </g>
  </g>
</svg>
