<svg id="favourites1" xmlns="http://www.w3.org/2000/svg" xmlns:xlink="http://www.w3.org/1999/xlink" width="29" height="27" viewBox="0 0 29 27">
  <defs>
    <clipPath id="clip-path">
      <rect id="Rectangle_89" data-name="Rectangle 89" width="29" height="27" transform="translate(0 0)"/>
    </clipPath>
  </defs>
  <g id="Group_158" data-name="Group 158" transform="translate(0 0)" clip-path="url(#clip-path)">
    <path id="Path_1481" data-name="Path 1481" d="M22.339,9.848a2.508,2.508,0,0,0-1.874-.256,2.514,2.514,0,0,0-1.542,1.171,2.5,2.5,0,0,0,.448,3.066,2.52,2.52,0,0,0,.468.35,2.5,2.5,0,0,0,3.416-3.416,2.528,2.528,0,0,0-.916-.916" transform="translate(-1.601 -0.82)"/>
    <path id="Path_1482" data-name="Path 1482" d="M26.519,2.455a8.382,8.382,0,0,0-11.855,0c-.061.06-.1.132-.16.195l-.017-.017-.018.017c-.058-.062-.1-.134-.159-.195A8.383,8.383,0,0,0,2.455,14.309c.061.061.133.1.2.159l-.018.018L14.487,26.341,26.342,14.486l-.017-.018c.061-.058.134-.1.195-.159a8.382,8.382,0,0,0,0-11.854m-15.626,3.9a2.332,2.332,0,0,1,.079,3.051,1.835,1.835,0,0,0-.287-.215.093.093,0,0,1-.046-.069,3.952,3.952,0,0,1,.038-1.347,3.1,3.1,0,0,0-.251,1.287c-.029.036-.149-.026-.247-.042s-.13.016-.185-.006a.1.1,0,0,1-.056-.054c-.532-1.192.954-2.605.954-2.605m-.2,3.365a2.186,2.186,0,0,1-2.709.236C9,9.07,10.179,8.926,10.877,9.517a3.857,3.857,0,0,0-1.814.216,6.252,6.252,0,0,1,1.63-.01m13.416,2.4h-.988c-.028.11-.06.217-.1.323a3.752,3.752,0,0,1-4.786,2.286c-.054-.018-.106-.037-.157-.059a3.719,3.719,0,0,1-1.092-.682h0a3.751,3.751,0,0,1-.781-.98,3.506,3.506,0,0,1-.255-.566,3.749,3.749,0,0,1-.214-1.25,1.248,1.248,0,0,0-1.095-1.239,1.2,1.2,0,0,0-.31,0,1.249,1.249,0,0,0-1.095,1.239,3.726,3.726,0,0,1-.214,1.25,3.506,3.506,0,0,1-.255.566,3.686,3.686,0,0,1-.486.684,3.587,3.587,0,0,1-.294.3,3.736,3.736,0,0,1-1.093.682c-.052.022-.1.041-.157.059a3.749,3.749,0,0,1-3.751-.741,3.587,3.587,0,0,1-.294-.3,3.725,3.725,0,0,1-.741-1.25c-.037-.105-.07-.213-.1-.323H4.865V10.266h.989c.027-.11.06-.217.1-.323a3.734,3.734,0,0,1,.741-1.25,3.9,3.9,0,0,1,.294-.3A3.747,3.747,0,0,1,9.48,7.445L8.82,8.785a2.5,2.5,0,0,0-.582.243,2.528,2.528,0,0,0-.916.916,2.5,2.5,0,1,0,4.332,0c-.016-.027-.037-.048-.054-.074l.614-1.244c.023.022.048.044.069.068a3.729,3.729,0,0,1,.486.684,2.557,2.557,0,0,1,.469-.35,2.519,2.519,0,0,1,.625-.256h0a2.5,2.5,0,0,1,1.873.256,2.557,2.557,0,0,1,.469.35,3.773,3.773,0,0,1,.486-.684,4.089,4.089,0,0,1,.3-.3h0a3.717,3.717,0,0,1,1.092-.681c.052-.022.1-.042.157-.059a3.751,3.751,0,0,1,3.75.74,4.088,4.088,0,0,1,.3.3,3.749,3.749,0,0,1,.741,1.25c.037.105.069.213.1.323h.988Z" transform="translate(0 0)"/>
  </g>
</svg>
