<svg id="favourites1" xmlns="http://www.w3.org/2000/svg" xmlns:xlink="http://www.w3.org/1999/xlink" width="22" height="20" viewBox="0 0 22 20">
  <defs>
    <clipPath id="clip-path">
      <rect id="Rectangle_89" data-name="Rectangle 89" width="22" height="20" fill="#14142b"/>
    </clipPath>
  </defs>
  <g id="Group_158" data-name="Group 158" transform="translate(0 0)" clip-path="url(#clip-path)">
    <path id="Path_1481" data-name="Path 1481" d="M21.42,9.765a1.892,1.892,0,0,0-.943-.251,1.883,1.883,0,0,0-1.3.514,1.889,1.889,0,0,0-.338.425,1.873,1.873,0,0,0,0,1.876,1.892,1.892,0,0,0,3.27,0,1.868,1.868,0,0,0,0-1.876,1.9,1.9,0,0,0-.691-.687" transform="translate(-5.765 -2.988)" fill="#14142b"/>
    <path id="Path_1482" data-name="Path 1482" d="M20.019,1.843a6.353,6.353,0,0,0-8.949,0c-.046.045-.077.1-.121.146l-.013-.013-.014.013c-.044-.047-.075-.1-.12-.146a6.354,6.354,0,0,0-8.95,0,6.266,6.266,0,0,0,0,8.9c.046.046.1.076.148.119l-.014.014,8.95,8.9,8.949-8.9-.013-.014c.046-.043.1-.073.147-.119a6.266,6.266,0,0,0,0-8.9M8.223,4.772a1.743,1.743,0,0,1,.059,2.29A1.384,1.384,0,0,0,8.066,6.9a.07.07,0,0,1-.034-.051A2.95,2.95,0,0,1,8.06,5.839a2.318,2.318,0,0,0-.19.966c-.022.027-.112-.02-.186-.032s-.1.012-.139,0a.078.078,0,0,1-.042-.04c-.4-.9.72-1.955.72-1.955M8.072,7.3a1.657,1.657,0,0,1-2.045.177,1.708,1.708,0,0,1,2.183-.331,2.927,2.927,0,0,0-1.369.162A4.746,4.746,0,0,1,8.072,7.3M18.2,9.1h-.746c-.021.082-.046.163-.074.242A2.821,2.821,0,0,1,16.6,10.5a2.846,2.846,0,0,1-2.831.556c-.041-.014-.08-.028-.119-.045a2.81,2.81,0,0,1-.824-.512h0a2.819,2.819,0,0,1-.59-.735,2.624,2.624,0,0,1-.192-.425,2.8,2.8,0,0,1-.161-.938.939.939,0,0,0-.826-.93.91.91,0,0,0-.234,0,.939.939,0,0,0-.826.93,2.782,2.782,0,0,1-.161.938,2.624,2.624,0,0,1-.192.425,2.767,2.767,0,0,1-.367.514,2.7,2.7,0,0,1-.222.222,2.823,2.823,0,0,1-.825.512c-.039.016-.079.031-.119.045A2.841,2.841,0,0,1,5.275,10.5a2.7,2.7,0,0,1-.222-.222,2.792,2.792,0,0,1-.559-.938c-.028-.079-.053-.16-.074-.242H3.673V7.706h.746c.021-.082.046-.163.074-.242a2.8,2.8,0,0,1,.559-.938A2.934,2.934,0,0,1,5.275,6.3a2.838,2.838,0,0,1,1.882-.716l-.5,1.006a1.881,1.881,0,0,0-1.131.87,1.868,1.868,0,0,0,0,1.876,1.892,1.892,0,0,0,3.27,0,1.868,1.868,0,0,0,0-1.876c-.012-.02-.028-.036-.041-.056l.464-.933c.017.016.036.033.052.051a2.8,2.8,0,0,1,.367.514,1.929,1.929,0,0,1,.354-.263,1.908,1.908,0,0,1,.472-.192h0a1.893,1.893,0,0,1,1.414.192,1.929,1.929,0,0,1,.354.263,2.832,2.832,0,0,1,.367-.514,3.078,3.078,0,0,1,.223-.222h0a2.808,2.808,0,0,1,.824-.511c.039-.016.078-.032.119-.045A2.843,2.843,0,0,1,16.6,6.3a3.077,3.077,0,0,1,.223.222,2.81,2.81,0,0,1,.559.938c.028.079.052.16.074.242H18.2Z" transform="translate(0 0)" fill="#14142b"/>
  </g>
</svg>
