<svg width="22" height="22" viewBox="0 0 22 22" fill="none" xmlns="http://www.w3.org/2000/svg">
<path d="M21.9978 11.3437C21.9978 17.4204 17.0753 22.3437 10.9998 22.3437C9.86453 22.3437 8.7736 22.1708 7.74476 21.8514C8.19266 21.1196 8.8623 19.922 9.11064 18.9683C9.24368 18.4538 9.79358 16.3514 9.79358 16.3514C10.1528 17.0345 11.1994 17.6155 12.3125 17.6155C15.6296 17.6155 18.0199 14.5639 18.0199 10.7716C18.0199 7.13891 15.0531 4.41996 11.2393 4.41996C6.49418 4.41996 3.97086 7.60464 3.97086 11.0776C3.97086 12.6921 4.83118 14.7014 6.2015 15.3401C6.40992 15.4377 6.52079 15.3933 6.56957 15.1937C6.60505 15.0429 6.79131 14.2933 6.87556 13.9474C6.90217 13.8365 6.88887 13.7389 6.80018 13.6325C6.35227 13.078 5.98863 12.0667 5.98863 11.122C5.98863 8.69577 7.82458 6.34939 10.9555 6.34939C13.6562 6.34939 15.5498 8.19012 15.5498 10.8248C15.5498 13.801 14.0464 15.8635 12.0907 15.8635C11.0131 15.8635 10.2016 14.972 10.4632 13.8764C10.7736 12.5679 11.3723 11.1575 11.3723 10.2127C11.3723 9.36996 10.92 8.66472 9.97983 8.66472C8.8756 8.66472 7.98867 9.80464 7.98867 11.3349C7.98867 12.3107 8.31683 12.9671 8.31683 12.9671C8.31683 12.9671 7.23034 17.5712 7.03078 18.4317C6.80904 19.3808 6.89774 20.7204 6.99087 21.5897C2.9021 19.9885 0.00183105 16.0054 0.00183105 11.3437C0.00183105 5.26714 4.92431 0.34375 10.9998 0.34375C17.0753 0.34375 21.9978 5.26714 21.9978 11.3437Z" fill="#E5D6C4"/>
</svg>
