<svg width="26" height="24" viewBox="0 0 26 24" fill="none" xmlns="http://www.w3.org/2000/svg">
<g clip-path="url(#clip0_170_81)">
<mask id="mask0_170_81" style="mask-type:luminance" maskUnits="userSpaceOnUse" x="0" y="0" width="26" height="24">
<path d="M26 0H0V24H26V0Z" fill="white"/>
</mask>
<g mask="url(#mask0_170_81)">
<path d="M18.5927 8.02488C18.0841 7.73454 17.4811 7.65288 16.9126 7.79733C16.6242 7.87162 16.3535 8.00186 16.1162 8.18052C15.8789 8.35919 15.6797 8.58273 15.5301 8.83822C15.2782 9.2711 15.1808 9.77552 15.2537 10.27C15.3266 10.7645 15.5655 11.2202 15.9318 11.5636C16.059 11.683 16.1998 11.7874 16.3513 11.8747C16.7787 12.1199 17.2758 12.2183 17.7654 12.1547C18.255 12.091 18.7097 11.8688 19.0589 11.5227C19.4081 11.1765 19.6322 10.7257 19.6964 10.2402C19.7606 9.75481 19.6613 9.26195 19.414 8.83822C19.2162 8.5007 18.9332 8.22097 18.5927 8.02488Z" fill="white"/>
<path d="M23.7757 2.18223C23.0778 1.49023 22.2493 0.941302 21.3375 0.566788C20.4257 0.192273 19.4483 -0.000488281 18.4614 -0.000488281C17.4744 -0.000488281 16.4971 0.192273 15.5852 0.566788C14.6734 0.941302 13.8449 1.49023 13.1471 2.18223C13.0924 2.23557 13.0574 2.29957 13.0036 2.35557L12.9884 2.34046L12.9722 2.35557C12.9202 2.30046 12.8826 2.23646 12.8297 2.18223C11.4146 0.812405 9.51201 0.0507631 7.53434 0.0624362C5.55668 0.0741093 3.66335 0.858156 2.26484 2.24459C0.866337 3.63103 0.0753712 5.50811 0.0634306 7.46887C0.0514901 9.42963 0.819537 11.316 2.20106 12.7191C2.25574 12.7733 2.3203 12.808 2.38037 12.8605L2.36423 12.8765L12.9884 23.4142L23.617 12.8765L23.6017 12.8605C23.6564 12.8089 23.7219 12.7716 23.7766 12.7191C24.4744 12.0273 25.028 11.2059 25.4056 10.3019C25.7833 9.39798 25.9777 8.42912 25.9777 7.45068C25.9777 6.47224 25.7833 5.50338 25.4056 4.59941C25.028 3.69545 24.4744 2.87409 23.7766 2.18223M9.76705 5.6489C10.1056 6.01706 10.2991 6.49379 10.3121 6.99182C10.3251 7.48985 10.1568 7.97587 9.83788 8.3609C9.75861 8.28902 9.67243 8.22501 9.58057 8.16979C9.56938 8.16343 9.55983 8.15457 9.55267 8.14393C9.54552 8.13329 9.54095 8.12115 9.53933 8.10846C9.48147 7.71035 9.49299 7.30536 9.5734 6.91112C9.41697 7.27219 9.34024 7.66224 9.34837 8.05512C9.32237 8.08712 9.21478 8.03201 9.12692 8.01779C9.03906 8.00357 9.01037 8.03201 8.96105 8.01246C8.94988 8.00819 8.93967 8.00174 8.93105 7.99349C8.92243 7.98525 8.91556 7.97538 8.91085 7.96446C8.43388 6.9049 9.76616 5.6489 9.76616 5.6489M9.58685 8.64001C9.26541 8.94179 8.85039 9.1268 8.40937 9.16489C7.96835 9.20298 7.52732 9.09192 7.15809 8.84979C8.06899 8.06223 9.12602 7.93423 9.75181 8.45957C9.20201 8.39352 8.64425 8.45937 8.12547 8.65157C8.61012 8.58539 9.10142 8.5824 9.58685 8.64268M21.615 10.776H20.7292C20.7041 10.8738 20.6754 10.9689 20.6395 11.0631C20.342 11.8965 19.7229 12.5787 18.9183 12.9597C18.1137 13.3407 17.1894 13.3894 16.3486 13.0951C16.3002 13.0791 16.2536 13.0622 16.2079 13.0427C15.8485 12.8986 15.5172 12.6934 15.2288 12.4365C14.9478 12.1871 14.7111 11.8926 14.5286 11.5653C14.4376 11.4047 14.3611 11.2363 14.3 11.0622C14.1729 10.7054 14.108 10.3296 14.1082 9.95112C14.1082 9.6804 14.0085 9.41899 13.8277 9.21613C13.6468 9.01327 13.3974 8.88298 13.1264 8.84979C13.0342 8.83788 12.9408 8.83788 12.8485 8.84979C12.5776 8.88316 12.3283 9.01351 12.1475 9.21633C11.9667 9.41914 11.8669 9.68045 11.8668 9.95112C11.8673 10.3296 11.8024 10.7055 11.6749 11.0622C11.6139 11.2363 11.5374 11.4047 11.4463 11.5653C11.3249 11.7838 11.1787 11.9878 11.0106 12.1733C10.928 12.2673 10.84 12.3563 10.747 12.44C10.4582 12.6968 10.1266 12.9019 9.76705 13.0462C9.72043 13.0658 9.6774 13.0827 9.6263 13.0987C9.0577 13.2981 8.44545 13.3422 7.85376 13.2263C7.26206 13.1105 6.71271 12.8388 6.26333 12.44C6.17029 12.3563 6.08228 12.2673 5.99974 12.1733C5.70687 11.8498 5.48113 11.4723 5.3354 11.0622C5.30223 10.9689 5.27264 10.8729 5.24574 10.7751H4.36174V9.12534H5.24843C5.27264 9.02757 5.30223 8.93246 5.33809 8.83823C5.48401 8.4283 5.70973 8.05079 6.00243 7.72712C6.0854 7.6336 6.17339 7.54459 6.26602 7.46046C6.88113 6.91769 7.67589 6.61781 8.49933 6.61779L7.90761 7.8089C7.72518 7.85877 7.54985 7.93135 7.38581 8.0249C7.04538 8.22098 6.76234 8.5016 6.56457 8.83912C6.36818 9.17697 6.2649 9.5601 6.26512 9.95004C6.26535 10.34 6.36905 10.723 6.56583 11.0606C6.76261 11.3982 7.04553 11.6786 7.38618 11.8735C7.72682 12.0684 8.1132 12.171 8.5065 12.171C8.8998 12.171 9.28618 12.0684 9.62683 11.8735C9.96748 11.6786 10.2504 11.3982 10.4472 11.0606C10.644 10.723 10.7477 10.34 10.7479 9.95004C10.7481 9.5601 10.6448 9.17697 10.4484 8.83912C10.4341 8.81512 10.4153 8.79646 10.4 8.77334L10.9505 7.66757C10.9711 7.68712 10.9935 7.70668 11.0124 7.72801C11.1802 7.91378 11.3264 8.11774 11.4481 8.33601C11.5758 8.2167 11.7169 8.11231 11.8686 8.0249C12.0442 7.92445 12.2327 7.84791 12.4289 7.79734C12.9971 7.65236 13.6 7.73406 14.1082 8.0249C14.2599 8.11231 14.401 8.2167 14.5286 8.33601C14.6506 8.11791 14.7968 7.91399 14.9644 7.72801C15.0493 7.63457 15.1391 7.54556 15.2333 7.46134C15.5217 7.20466 15.853 6.99982 16.2124 6.85601C16.259 6.83646 16.302 6.81868 16.3531 6.80357C16.9215 6.60435 17.5335 6.5603 18.125 6.67602C18.7165 6.79174 19.2657 7.06298 19.7152 7.46134C19.8094 7.54556 19.8992 7.63457 19.9842 7.72801C20.2766 8.05188 20.5023 8.42934 20.6485 8.83912C20.6817 8.93246 20.7104 9.02846 20.7382 9.12623H21.624L21.615 10.776Z" fill="white"/>
</g>
</g>
<defs>
<clipPath id="clip0_170_81">
<rect width="26" height="24" fill="white"/>
</clipPath>
</defs>
</svg>
